<svg width="840" height="840" viewBox="0 0 840 840" fill="none" xmlns="http://www.w3.org/2000/svg">
<g clip-path="url(#clip0_475_176)">
<g clip-path="url(#clip1_475_176)">
<mask id="mask0_475_176" style="mask-type:luminance" maskUnits="userSpaceOnUse" x="0" y="0" width="840" height="840">
<path d="M70.7999 188.102C-57.3395 381.054 -4.79768 641.351 188.155 769.49C381.108 897.63 641.405 845.088 769.544 652.135C897.684 459.182 845.142 198.886 652.189 70.7462C459.236 -57.3931 198.939 -4.85138 70.7999 188.102Z" fill="white"/>
</mask>
<g mask="url(#mask0_475_176)">
<path d="M652.189 70.7455C459.236 -57.394 198.939 -4.85218 70.7994 188.101C-57.3402 381.054 -4.79839 641.351 188.155 769.491C381.108 897.63 641.405 845.088 769.544 652.135C897.684 459.182 845.142 198.885 652.189 70.7455Z" fill="#D6D6D6" fill-opacity="0.2"/>
</g>
</g>
<g clip-path="url(#clip2_475_176)">
<mask id="mask1_475_176" style="mask-type:luminance" maskUnits="userSpaceOnUse" x="80" y="81" width="679" height="679">
<path d="M118.786 576.057L118.787 576.058C204.832 742.256 409.317 807.232 575.515 721.186L575.516 721.186C741.715 635.14 806.692 430.656 720.646 264.458L720.646 264.457C634.601 98.2586 430.116 33.2824 263.918 119.328L263.917 119.329C97.7179 205.375 32.7409 409.859 118.786 576.057Z" fill="white"/>
</mask>
<g mask="url(#mask1_475_176)">
<path d="M720.646 264.457C634.6 98.259 430.116 33.2829 263.917 119.329C97.7184 205.375 32.7414 409.859 118.787 576.057C204.832 742.255 409.317 807.231 575.515 721.185C741.714 635.139 806.691 430.655 720.646 264.457Z" fill="#F5F5F5" fill-opacity="0.6"/>
</g>
</g>
<g clip-path="url(#clip3_475_176)">
<mask id="mask2_475_176" style="mask-type:luminance" maskUnits="userSpaceOnUse" x="175" y="176" width="490" height="489">
<path d="M410.54 664.424C545.333 669.774 658.941 564.84 664.291 430.047C669.641 295.255 564.708 181.647 429.915 176.296C295.122 170.946 181.514 275.88 176.164 410.673C170.814 545.465 275.748 659.073 410.54 664.424Z" fill="white"/>
</mask>
<g mask="url(#mask2_475_176)">
<path d="M176.164 410.676C170.814 545.468 275.748 659.076 410.54 664.427C545.333 669.777 658.941 564.843 664.291 430.05C669.641 295.258 564.708 181.65 429.915 176.299C295.122 170.949 181.514 275.883 176.164 410.676Z" fill="#FAFAFA" fill-opacity="0.8"/>
</g>
</g>
</g>
<defs>
<clipPath id="clip0_475_176">
<rect width="840" height="840" fill="white"/>
</clipPath>
<clipPath id="clip1_475_176">
<rect width="840.003" height="840.003" fill="white" transform="translate(537.52 1002.23) rotate(-146.412)"/>
</clipPath>
<clipPath id="clip2_475_176">
<rect width="747.599" height="748.661" fill="white" transform="translate(938.41 525.36) rotate(146.448)"/>
</clipPath>
<clipPath id="clip3_475_176">
<rect width="671.996" height="671.996" fill="white" transform="translate(514.31 885.72) rotate(-146.448)"/>
</clipPath>
</defs>
</svg>
