<svg width="257" height="188" viewBox="0 0 257 188" fill="none" xmlns="http://www.w3.org/2000/svg">
<g filter="url(#filter0_f_0_1)">
<ellipse cx="128.5" cy="94" rx="58.5" ry="24" fill="#7BE0E7" fill-opacity="0.8"/>
</g>
<path d="M180.892 102.712L146.654 114.604C145.285 115.083 144.065 113.587 144.808 112.341L148.749 105.688H87.6749C84.053 105.688 81.8148 101.746 83.6614 98.6327L105.534 61.8159C106.205 60.6918 107.416 60 108.728 60H164.95C166.761 60 167.88 61.9685 166.959 63.525L153.068 86.9081C152.229 88.3272 150.697 89.1919 149.05 89.1919H136.877C135.662 89.1919 134.914 87.8593 135.55 86.8216L147.401 67.5078C148.373 65.9259 147.234 63.9014 145.387 63.9014C144.97 63.9014 144.568 64.0082 144.217 64.2117C143.866 64.4101 143.561 64.7 143.352 65.0612L130.163 86.9335C129.319 88.3374 127.803 89.1971 126.165 89.1971H114.522C113.311 89.1971 112.563 87.8745 113.189 86.8369L124.868 67.4824C125.804 65.9004 124.664 63.9065 122.828 63.9065H122.686C121.851 63.9065 121.079 64.3439 120.651 65.0662L104.349 92.4982C103.733 93.5359 104.481 94.8482 105.686 94.8482H155.174L158.246 89.6599C158.683 88.9223 159.64 88.6782 160.377 89.1157L181.024 101.313C181.593 101.654 181.512 102.498 180.881 102.717L180.892 102.712Z" fill="#2FBFC9"/>
<defs>
<filter id="filter0_f_0_1" x="0" y="0" width="257" height="188" filterUnits="userSpaceOnUse" color-interpolation-filters="sRGB">
<feFlood flood-opacity="0" result="BackgroundImageFix"/>
<feBlend mode="normal" in="SourceGraphic" in2="BackgroundImageFix" result="shape"/>
<feGaussianBlur stdDeviation="35" result="effect1_foregroundBlur_0_1"/>
</filter>
</defs>
</svg>
