<svg width="78" height="47" viewBox="0 0 78 47" fill="none" xmlns="http://www.w3.org/2000/svg">
<g opacity="0.5" filter="url(#filter0_d_2085_746)">
<path d="M73.6318 29.7404L49.269 37.983C48.2953 38.3144 47.4283 37.274 47.9574 36.4085L50.7658 31.7864L7.3216 31.7437C4.74519 31.7412 3.1558 28.9994 4.47147 26.8368L20.0549 1.26006C20.5333 0.479126 21.3953 -0.000895536 22.3285 2.06128e-05L62.3214 0.0392787C63.6094 0.040543 64.404 1.40967 63.7481 2.49098L53.8505 18.7353C53.2528 19.7212 52.1628 20.3212 50.9907 20.32L42.3322 20.3115C41.4675 20.3107 40.9365 19.3838 41.3896 18.6629L49.8331 5.24586C50.5254 4.14691 49.7163 2.73886 48.4028 2.73757C48.106 2.73727 47.8201 2.81125 47.5703 2.95243C47.3204 3.09008 47.1033 3.29141 46.9547 3.5423L37.5575 18.7369C36.9561 19.7123 35.8772 20.3088 34.712 20.3076L26.4301 20.2995C25.5686 20.2986 25.0376 19.3788 25.4834 18.6579L33.8041 5.21242C34.4712 4.11344 33.6618 2.72663 32.3559 2.72535L32.2546 2.72525C31.661 2.72467 31.111 3.0282 30.8064 3.52999L19.1911 22.5871C18.7526 23.308 19.2836 24.2207 20.141 24.2216L55.3431 24.2561L57.5323 20.6517C57.8437 20.1394 58.5242 19.9703 59.0485 20.2749L73.7268 28.7682C74.1316 29.0054 74.0735 29.5923 73.6245 29.7439L73.6318 29.7404Z" fill="white"/>
<path d="M22.3276 0.50002L62.3208 0.539278C63.2384 0.540179 63.7639 1.49904 63.3211 2.23069L53.4233 18.4749L53.4233 18.4759C52.919 19.3075 51.9939 19.8211 50.9913 19.8202L42.3331 19.8117C41.8403 19.8112 41.5802 19.2995 41.8125 18.9293L50.2563 5.51279C51.1697 4.06296 50.0883 2.23919 48.4031 2.23753C48.0702 2.23723 47.7444 2.31022 47.4488 2.45241L47.3247 2.51675C47.007 2.69267 46.7255 2.95131 46.529 3.27964L37.1323 18.4735L37.1323 18.4745C36.6236 19.2994 35.7067 19.8091 34.712 19.8081L26.4308 19.8C25.9397 19.7995 25.6802 19.2907 25.9092 18.9205L25.9082 18.9196L34.229 5.47557L34.2319 5.47167C35.1118 4.02175 34.0303 2.22733 32.3562 2.22569L32.2546 2.22559C31.4912 2.22497 30.7772 2.61527 30.3796 3.26964L18.7642 22.3266L18.7642 22.3276C18.1127 23.3988 18.914 24.7203 20.1408 24.7215L55.6241 24.7563L55.7709 24.5153L57.9599 20.912C58.1273 20.6367 58.5037 20.5372 58.7971 20.7077L58.798 20.7077L73.4743 29.1987L73.4743 29.1997C73.4905 29.2092 73.4946 29.2168 73.4957 29.2192C73.4977 29.2232 73.4994 29.2294 73.4987 29.2368C73.4979 29.2443 73.4947 29.2507 73.4918 29.2544C73.4898 29.2568 73.4834 29.2619 73.4664 29.268L49.1087 37.5097L49.1077 37.5097C48.5406 37.7026 48.1188 37.1029 48.3839 36.6692L48.3849 36.6682L51.1932 32.0459L51.6539 31.2876L7.32185 31.2441C5.11603 31.2418 3.79454 28.9092 4.89721 27.0962L4.89819 27.0972L20.4819 1.52067L20.4809 1.51969C20.867 0.890211 21.5664 0.499421 22.3276 0.50002Z" stroke="url(#paint0_linear_2085_746)"/>
</g>
<defs>
<filter id="filter0_d_2085_746" x="0" y="0" width="77.998" height="46.0461" filterUnits="userSpaceOnUse" color-interpolation-filters="sRGB">
<feFlood flood-opacity="0" result="BackgroundImageFix"/>
<feColorMatrix in="SourceAlpha" type="matrix" values="0 0 0 0 0 0 0 0 0 0 0 0 0 0 0 0 0 0 127 0" result="hardAlpha"/>
<feOffset dy="4"/>
<feGaussianBlur stdDeviation="2"/>
<feComposite in2="hardAlpha" operator="out"/>
<feColorMatrix type="matrix" values="0 0 0 0 0 0 0 0 0 0 0 0 0 0 0 0 0 0 0.25 0"/>
<feBlend mode="normal" in2="BackgroundImageFix" result="effect1_dropShadow_2085_746"/>
<feBlend mode="normal" in="SourceGraphic" in2="effect1_dropShadow_2085_746" result="shape"/>
</filter>
<linearGradient id="paint0_linear_2085_746" x1="21.4533" y1="1.73696" x2="61.1029" y2="39.1818" gradientUnits="userSpaceOnUse">
<stop stop-color="#F3F3F3"/>
<stop offset="0.412044" stop-color="#BBFCFF"/>
<stop offset="0.701657" stop-color="#39A1A6"/>
<stop offset="1" stop-color="white"/>
</linearGradient>
</defs>
</svg>
