<svg width="469" height="259" viewBox="0 0 469 259" fill="none" xmlns="http://www.w3.org/2000/svg">
<g filter="url(#filter0_d_154_525)">
<path d="M464.173 199.553L302.388 255.114C295.922 257.348 290.156 250.361 293.665 244.54L312.291 213.455H23.6968C6.58208 213.455 -3.99385 195.038 4.73183 180.493L108.084 8.48402C111.256 3.23201 116.979 0 123.179 0H388.846C397.402 0 402.689 9.19698 398.339 16.469L332.697 125.716C328.732 132.346 321.496 136.386 313.71 136.386H256.193C250.448 136.386 246.915 130.16 249.92 125.312L305.922 35.0769C310.513 27.6861 305.13 18.2276 296.404 18.2276C294.433 18.2276 292.534 18.7266 290.875 19.6772C289.216 20.604 287.775 21.9586 286.789 23.6459L224.465 125.834C220.476 132.394 213.313 136.41 205.573 136.41H150.557C144.834 136.41 141.301 130.231 144.258 125.383L199.443 34.9579C203.868 27.5671 198.482 18.2513 189.807 18.2513H189.134C185.191 18.2513 181.539 20.2951 179.519 23.6697L102.485 151.833C99.5761 156.681 103.109 162.812 108.805 162.812H342.648L357.167 138.572C359.232 135.126 363.751 133.986 367.236 136.03L464.798 193.018C467.488 194.61 467.106 198.555 464.125 199.577L464.173 199.553Z" fill="#18181A"/>
<path d="M123.179 0.90332H388.846C396.716 0.90332 401.544 9.34809 397.564 16.0039L331.923 125.25L331.922 125.252C328.124 131.604 321.185 135.482 313.71 135.482H256.192C251.137 135.482 248.065 130.017 250.688 125.787L306.689 35.5537C311.665 27.5445 305.819 17.3244 296.404 17.3242C294.282 17.3242 292.23 17.8615 290.432 18.8906C288.648 19.8878 287.09 21.3474 286.019 23.1758L223.693 125.364V125.365C219.87 131.653 212.999 135.507 205.572 135.507H150.557C145.599 135.507 142.546 130.251 144.912 126.053L145.029 125.854L200.214 35.4287L200.219 35.4219C205.013 27.4124 199.164 17.3477 189.807 17.3477H189.134C184.879 17.3477 180.931 19.554 178.745 23.2041L101.71 151.367V151.368C98.431 156.834 102.425 163.716 108.806 163.716H343.16L343.423 163.276L357.94 139.036L357.941 139.037C359.75 136.02 363.718 135.013 366.779 136.809L366.78 136.81L464.342 193.797C466.354 194.992 466.081 197.906 463.881 198.702L463.88 198.698L302.095 254.26H302.093C296.394 256.229 291.382 250.075 294.438 245.006L294.439 245.004L313.065 213.92L313.886 212.552H23.6973C7.2686 212.552 -2.84931 194.886 5.50684 180.958L5.50586 180.957L108.857 8.95117C111.866 3.97135 117.294 0.903347 123.179 0.90332Z" stroke="#363537" stroke-width="1.80687"/>
</g>
<defs>
<filter id="filter0_d_154_525" x="-3.49283e-05" y="0" width="468.213" height="258.754" filterUnits="userSpaceOnUse" color-interpolation-filters="sRGB">
<feFlood flood-opacity="0" result="BackgroundImageFix"/>
<feColorMatrix in="SourceAlpha" type="matrix" values="0 0 0 0 0 0 0 0 0 0 0 0 0 0 0 0 0 0 127 0" result="hardAlpha"/>
<feOffset dy="1.60648"/>
<feGaussianBlur stdDeviation="0.80324"/>
<feComposite in2="hardAlpha" operator="out"/>
<feColorMatrix type="matrix" values="0 0 0 0 0 0 0 0 0 0 0 0 0 0 0 0 0 0 0.25 0"/>
<feBlend mode="normal" in2="BackgroundImageFix" result="effect1_dropShadow_154_525"/>
<feBlend mode="normal" in="SourceGraphic" in2="effect1_dropShadow_154_525" result="shape"/>
</filter>
</defs>
</svg>
